<?xml version="1.0" encoding="UTF-8"?>
<svg id="_图层_1" data-name="图层 1" xmlns="http://www.w3.org/2000/svg" xmlns:xlink="http://www.w3.org/1999/xlink" viewBox="105 206 289 80">
  <defs>
    <style>
      .cls-1 {
        fill: #0f0e1d;
      }

      .cls-2 {
        fill: url(#_未命名渐变_13);
      }

      .cls-3 {
        fill: url(#_未命名渐变_24);
      }

      .cls-4 {
        fill: url(#_未命名渐变_13-5);
      }

      .cls-5 {
        fill: url(#_未命名渐变_13-4);
      }

      .cls-6 {
        fill: #fff;
      }

      .cls-7 {
        fill: url(#_未命名渐变_13-2);
      }

      .cls-7, .cls-8 {
        opacity: .6;
      }

      .cls-8 {
        fill: url(#_未命名渐变_13-3);
      }
    </style>
    <linearGradient id="_未命名渐变_24" data-name="未命名渐变 24" x1="250.52" y1="222.84" x2="256.8" y2="219.81" gradientUnits="userSpaceOnUse">
      <stop offset=".17" stop-color="#582566"/>
      <stop offset=".65" stop-color="#84569f"/>
    </linearGradient>
    <linearGradient id="_未命名渐变_13" data-name="未命名渐变 13" x1="264.59" y1="221.09" x2="272.91" y2="221.09" gradientUnits="userSpaceOnUse">
      <stop offset=".65" stop-color="#84569f"/>
      <stop offset="1" stop-color="#582566"/>
    </linearGradient>
    <linearGradient id="_未命名渐变_13-2" data-name="未命名渐变 13" x1="212.28" y1="248.87" x2="270.07" y2="248.87" xlink:href="#_未命名渐变_13"/>
    <linearGradient id="_未命名渐变_13-3" data-name="未命名渐变 13" x1="217.49" y1="251.65" x2="254.64" y2="251.65" xlink:href="#_未命名渐变_13"/>
    <linearGradient id="_未命名渐变_13-4" data-name="未命名渐变 13" x1="206.57" y1="250.26" x2="271.15" y2="250.26" xlink:href="#_未命名渐变_13"/>
    <linearGradient id="_未命名渐变_13-5" data-name="未命名渐变 13" x1="233.97" y1="243.4" x2="252.85" y2="243.4" xlink:href="#_未命名渐变_13"/>
  </defs>
  <rect class="cls-1" width="500" height="500"/>
  <path class="cls-6" d="M140.73,217.5c5.02.04,8.7,1.13,11.06,3.28,2.36,2.15,3.53,5.52,3.53,10.12,0,1.18-.1,2.62-.28,4.33l-.85,7.81c-.84,6.19-2.74,10.69-5.7,13.48-2.96,2.79-7.33,4.21-13.11,4.25h-4.22c-5.02-.04-8.7-1.12-11.06-3.25-2.36-2.13-3.53-5.47-3.53-10.03,0-1.18.09-2.66.28-4.45l.85-7.81c.8-6.19,2.69-10.69,5.67-13.48,2.98-2.79,7.36-4.21,13.14-4.25h4.22ZM123.52,243.37c-.15,1.52-.23,2.58-.23,3.19,0,2.77.66,4.78,1.97,6.01,1.31,1.24,3.47,1.87,6.47,1.91h4.56c3.46-.04,6.03-.92,7.72-2.65,1.69-1.73,2.8-4.55,3.33-8.46l1.03-8.49c.15-1.52.23-2.58.23-3.19,0-2.77-.66-4.78-1.97-6.01-1.31-1.23-3.47-1.87-6.47-1.91h-4.56c-3.46.04-6.03.92-7.72,2.65-1.69,1.73-2.8,4.55-3.33,8.46l-1.03,8.49Z"/>
  <path class="cls-6" d="M187.93,234.88l-3.08,25.65h-6.55l3.13-25.65h-12.82l-3.08,25.65h-6.56l3.88-31.75h31.92c7.87,0,11.8,3.61,11.8,10.83,0,.88-.06,1.82-.17,2.85l-2.22,18.07h-6.56l2.22-18.24c.08-.76.11-1.29.11-1.6,0-3.88-1.98-5.81-5.93-5.81h-6.1Z"/>
  <path class="cls-6" d="M239.59,257.85l-.32,2.64-6.56.17.11-1.17M233.49,254.1l1.01-11.81c.08-.76.11-1.29.11-1.6,0-3.88-1.98-5.81-5.93-5.81h-7.81l-3.08,25.65h-6.56l3.88-31.75h14.31c7.87,0,11.8,3.61,11.8,10.83,0,.88-.06,1.82-.17,2.85l-.8,10"/>
  <path class="cls-3" d="M250,224.51l.85-6.84h7.47l-.85,6.84h-7.47Z"/>
  <path class="cls-2" d="M272.06,224.51h-7.47l.85-6.84h7.47l-.85,6.84Z"/>
  <path class="cls-6" d="M284.43,234.88l-3.08,25.65h-6.55l3.88-31.75h14.31c7.87,0,11.8,3.61,11.8,10.83,0,.88-.06,1.82-.17,2.85l-2.22,18.07h-6.55l2.22-18.24c.08-.76.12-1.29.12-1.6,0-3.88-1.98-5.81-5.93-5.81h-7.81Z"/>
  <path class="cls-6" d="M311.8,228.78l.29-2.34c.83-6.73,4.71-10.09,11.63-10.09,1.71,0,3.71.1,5.99.29l-.91,6.04-1.88-.11c-1.82-.08-2.93-.11-3.31-.11-1.67,0-2.89.41-3.65,1.23-.76.82-1.24,2.08-1.42,3.79l-.17,1.31h9.8l-.74,6.1h-9.8l-3.14,25.65h-6.55l3.13-25.65"/>
  <path class="cls-6" d="M345.72,228.55c3.91,0,6.87.92,8.86,2.76,2,1.84,2.99,4.57,2.99,8.18,0,.84-.06,1.75-.17,2.74l-.63,5.13h-21.26v.06c-.08.84-.11,1.41-.11,1.71,0,1.94.56,3.37,1.68,4.3,1.12.93,3.01,1.4,5.67,1.4h2.79c1.98,0,4.98-.17,9.01-.51l-.63,5.93c-3.34.34-6.35.51-9.01.51h-2.79c-4.6,0-7.97-.93-10.12-2.79-2.15-1.86-3.22-4.6-3.22-8.21,0-.87.06-1.77.17-2.68l.57-4.79c.53-4.56,2.03-7.99,4.5-10.29,2.47-2.3,5.98-3.45,10.54-3.45h1.14ZM350.91,241.83v-.06c.08-.84.11-1.44.11-1.82,0-1.82-.48-3.21-1.45-4.16-.97-.95-2.5-1.42-4.59-1.42h-1.14c-4.48,0-7.03,2.49-7.64,7.47h14.71Z"/>
  <path class="cls-6" d="M381,234.99c-2.36-.08-3.88-.11-4.56-.11-2.43,0-4.26.58-5.47,1.74-1.22,1.16-1.98,3.07-2.28,5.73l-2.28,18.18h-6.55l2.22-18.01c.57-4.83,2.02-8.32,4.36-10.49,2.34-2.17,5.92-3.25,10.74-3.25,1.9,0,3.51.06,4.84.17l-1.03,6.04Z"/>
  <path class="cls-7" d="M252.14,264.62c-9.07,2.22-23.01,5.37-39.85,2.29,0,0,25.4.77,34.81-4.37,1.86-1.02,4.34-2.68,6.85-7.07,1.48-2.58,2.33-5.06,3.16-8.66l3.72-17.26h9.24l-4.66,20.14c-.87,3.74-2.51,7.3-5.05,10.16-1.65,1.86-5.84,4.19-8.22,4.78Z"/>
  <path class="cls-8" d="M242.57,262.94c-5.74,2.1-14.11,2.48-25.08.34,0,0,15.67,1.78,21.8-1.78,1.21-.71,2.82-1.86,4.46-4.91.96-1.79,2.8-3.83,3.34-6.33l1.93-11.67h5.61l-3.07,12.56c-.34,1.4-.8,2.78-1.42,4.08-.93,1.96-1.88,3.11-2.83,4.18-1.19,1.34-1.84,2.46-4.74,3.53Z"/>
  <path class="cls-5" d="M250.63,269.11c-10.38,2.55-24.79,4.1-44.06.56,0,0,29.64,1.99,40.4-3.92,2.13-1.17,5.25-2.12,8.13-7.16,1.69-2.96,2.67-5.82,3.62-9.96l4.26-19.85h8.17l-5.33,23.16c-.99,4.3-2.88,8.39-5.78,11.68-1.89,2.14-6.68,4.82-9.41,5.49Z"/>
  <path class="cls-4" d="M245.29,255.99c-5.82,2.22-14.88,2.95-25.99.54,0,0,17.74.1,22.4-4.16,1.13-1.03,2.69-2.24,3.64-4.41.82-1.88,1.38-3.96,1.75-6.12l2.62-13.06h6.85l-3.07,15.71c-1.06,4.44-1.66,5.69-3.34,7.93-1.09,1.46-2.87,2.81-4.86,3.57Z"/>
</svg>
